<?xml version="1.0" encoding="UTF-8"?><svg id="Layer_2" xmlns="http://www.w3.org/2000/svg" xmlns:xlink="http://www.w3.org/1999/xlink" viewBox="0 0 329.01 48.3"><defs><style>.cls-1{fill:none;}.cls-2{clip-path:url(#clippath);}.cls-3{fill:#e63137;}.cls-4{fill:#fff;}.cls-5{fill:#6a84b7;}.cls-6{fill:#d40d22;}.cls-7{fill:#e2001f;}.cls-8{fill:#134093;}.cls-9{fill:#4f73ab;}.cls-10{clip-path:url(#clippath-1);}</style><clipPath id="clippath"><path class="cls-1" d="M16.1,4.25c-7.12,.29-12.06,6.07-12.06,13.48v.64c0-7.4,4.94-13.19,12.06-13.48,.18,0,.36-.01,.54-.01,.84,0,1.68,.08,2.51,.23v-.64c-.83-.15-1.67-.23-2.51-.23-.18,0-.36,0-.54,.01"/></clipPath><clipPath id="clippath-1"><path class="cls-1" d="M0,17.74C0,19.01,.11,20.33,.36,21.67c1.96,10.94,11.49,19.53,21.49,19.53,.23,0,.47,0,.7-.01,6.98-.28,12.31-4.73,14.36-11.09v-.64c-2.05,6.35-7.38,10.8-14.36,11.08-.24,0-.47,.01-.7,.01C11.85,40.55,2.31,31.96,.36,21.02,.11,19.68,0,18.37,0,17.09v.65Z"/></clipPath></defs><g id="Header"><g><g><polygon class="cls-4" points="53.82 29.51 60.07 29.51 60.07 30.52 54.97 30.52 54.97 32.77 59.92 32.77 59.92 33.77 54.97 33.77 54.97 36.29 60.18 36.29 60.18 37.3 53.82 37.3 53.82 29.51"/><polygon class="cls-4" points="65.55 31.58 67 31.58 64.6 34.34 67.17 37.3 65.64 37.3 63.85 35.13 62.04 37.3 60.6 37.3 63.14 34.34 60.78 31.58 62.26 31.58 63.89 33.55 65.55 31.58"/><g><path class="cls-4" d="M67.78,29.45h1.09v3h.02c.51-.8,1.42-1.06,2.24-1.06,1.37,0,2.4,.59,2.4,2.02v3.89h-1.09v-3.67c0-.84-.52-1.32-1.69-1.32-.99,0-1.88,.58-1.88,1.7v3.29h-1.09v-7.85Z"/><path class="cls-4" d="M74.86,29.45h1.09v1.2h-1.09v-1.2Zm0,2.14h1.09v5.71h-1.09v-5.71Z"/><path class="cls-4" d="M77.28,29.45h1.09v3h.02c.44-.69,1.32-.99,2.17-.99,1.72,0,3.11,1.1,3.11,3.02s-1.38,3.02-3.11,3.02c-.84,0-1.74-.33-2.17-.93h-.02v.73h-1.09v-7.85Zm3.14,2.92c-1.28,0-2.12,.8-2.12,2.1,0,1.08,.63,2.1,2.12,2.1s2.09-1.02,2.09-2.1c0-1.31-.83-2.1-2.09-2.1"/><path class="cls-4" d="M84.74,29.45h1.09v1.2h-1.09v-1.2Zm0,2.14h1.09v5.71h-1.09v-5.71Z"/><path class="cls-4" d="M87.64,29.83h1.09v1.76h1.64v.85h-1.64v3.52c0,.46,.33,.62,.88,.62,.25,0,.5-.03,.75-.08v.92c-.37,.07-.77,.08-1.22,.08-1.07,0-1.5-.52-1.5-1.35v-3.71h-1.18v-.85h1.18v-1.76Z"/><path class="cls-4" d="M91.2,29.45h1.09v1.2h-1.09v-1.2Zm0,2.14h1.09v5.71h-1.09v-5.71Z"/><path class="cls-4" d="M96.68,31.39c2.22,0,3.31,1.41,3.31,3.05s-1.09,3.05-3.31,3.05-3.31-1.41-3.31-3.05,1.09-3.05,3.31-3.05m0,.92c-1.58,0-2.16,1.1-2.16,2.14s.58,2.14,2.16,2.14,2.16-1.1,2.16-2.14-.58-2.14-2.16-2.14"/><path class="cls-4" d="M101.07,31.58h1.09v.86h.02c.51-.8,1.42-1.06,2.24-1.06,1.37,0,2.4,.59,2.4,2.02v3.89h-1.09v-3.67c0-.84-.52-1.32-1.69-1.32-.99,0-1.88,.58-1.88,1.7v3.29h-1.09v-5.71Z"/><path class="cls-4" d="M114.16,36.41c-.59,.72-1.68,1.08-2.77,1.08-2.34,0-3.07-1.29-3.07-2.32,0-.97,.58-1.82,2.03-2.32-.69-.61-.85-1.14-.85-1.58,0-1.05,.73-1.76,2.02-1.76s1.97,.76,1.97,1.69c0,.61-.36,1.35-1.5,1.81l2.06,1.91c.22-.36,.32-.68,.36-1.21h1.02c-.02,.6-.17,1.24-.64,1.9l1.83,1.69h-1.52l-.94-.88Zm-3.19-2.95c-1.21,.51-1.49,1.06-1.49,1.68s.45,1.44,1.97,1.44c.76,0,1.54-.19,2-.8l-2.47-2.32Zm.37-1.02c.82-.34,1.12-.77,1.12-1.17,0-.45-.39-.84-.94-.84-.7,0-1,.39-1,.78s.27,.72,.82,1.22"/><path class="cls-4" d="M123.61,32.31c-.17-1.08-1.02-2-2.66-2-1.84,0-3.01,1.06-3.01,3.18,0,1.47,.8,2.99,2.94,2.99,1.36,0,2.4-.65,2.73-2.17h1.16c-.18,1.72-1.67,3.17-3.89,3.17-1.96,0-4.09-1.08-4.09-4.11,0-2.27,1.42-4.07,4.08-4.07,1.56,0,3.71,.66,3.9,3h-1.16Z"/><path class="cls-4" d="M128.98,31.39c2.22,0,3.31,1.41,3.31,3.05s-1.09,3.05-3.31,3.05-3.31-1.41-3.31-3.05,1.09-3.05,3.31-3.05m0,.92c-1.58,0-2.16,1.1-2.16,2.14s.58,2.14,2.16,2.14,2.16-1.1,2.16-2.14-.58-2.14-2.16-2.14"/><path class="cls-4" d="M133.38,31.58h1.09v.86h.02c.51-.8,1.42-1.06,2.24-1.06,1.37,0,2.4,.59,2.4,2.02v3.89h-1.09v-3.67c0-.84-.52-1.32-1.69-1.32-.99,0-1.88,.58-1.88,1.7v3.29h-1.09v-5.71Z"/><path class="cls-4" d="M140.79,30.73c0-1.06,.65-1.42,1.76-1.42,.34,0,.63,.05,.95,.09v.85c-.21-.01-.41-.02-.61-.02-.71,0-1,.09-1,.56v.8h1.61v.85h-1.61v4.86h-1.09v-4.86h-1.17v-.85h1.17v-.85Z"/><path class="cls-4" d="M144.99,34.77c.09,1.18,1.13,1.81,2.1,1.81,.62,0,1.47-.21,1.84-1.01h1.16c-.55,1.37-1.82,1.93-2.94,1.93-2.22,0-3.31-1.41-3.31-3.05s1.09-3.05,3.31-3.05c1.5,0,3.1,.87,3.1,3.24v.14h-5.25Zm4.1-.85c-.16-1.04-.97-1.61-2-1.61s-1.91,.59-2.07,1.61h4.07Z"/><path class="cls-4" d="M151.35,31.58h1.09v1.05h.02c.51-.91,1.24-1.24,1.96-1.24,.27,0,.41,.01,.62,.06v1.18c-.27-.07-.48-.11-.77-.11-1.08,0-1.83,.63-1.83,1.88v2.9h-1.09v-5.71Z"/><path class="cls-4" d="M156.69,34.77c.09,1.18,1.13,1.81,2.1,1.81,.62,0,1.47-.21,1.84-1.01h1.16c-.54,1.37-1.82,1.93-2.94,1.93-2.22,0-3.31-1.41-3.31-3.05s1.09-3.05,3.31-3.05c1.5,0,3.1,.87,3.1,3.24v.14h-5.26Zm4.1-.85c-.16-1.04-.97-1.61-2-1.61s-1.91,.59-2.07,1.61h4.07Z"/><path class="cls-4" d="M163.06,31.58h1.09v.86h.02c.51-.8,1.42-1.06,2.24-1.06,1.37,0,2.4,.59,2.4,2.02v3.89h-1.09v-3.67c0-.84-.52-1.32-1.69-1.32-.99,0-1.88,.58-1.88,1.7v3.29h-1.09v-5.71Z"/><path class="cls-4" d="M175.97,35.2c-.46,1.71-1.49,2.29-2.98,2.29-2.27,0-3.11-1.54-3.11-3.02,0-1.69,1.04-3.08,3.1-3.08,1.53,0,2.74,.69,2.97,2.1h-1.16c-.13-.74-.72-1.19-1.73-1.19-1.4,0-2.02,.92-2.02,2.14s.62,2.14,2.02,2.14c.98,0,1.52-.42,1.76-1.37h1.16Z"/><path class="cls-4" d="M177.91,34.77c.09,1.18,1.13,1.81,2.1,1.81,.62,0,1.47-.21,1.84-1.01h1.16c-.55,1.37-1.82,1.93-2.94,1.93-2.22,0-3.31-1.41-3.31-3.05s1.09-3.05,3.31-3.05c1.5,0,3.1,.87,3.1,3.24v.14h-5.25Zm4.1-.85c-.16-1.04-.97-1.61-2-1.61s-1.91,.59-2.07,1.61h4.07Z"/><rect class="cls-4" x="45.6" y="47.32" width=".89" height=".89"/><rect class="cls-4" x="47.89" y="47.32" width=".89" height=".89"/><rect class="cls-4" x="50.19" y="47.32" width=".89" height=".89"/><path class="cls-4" d="M54.59,43.33h-.68v-.83h.68v.83Zm-.68,.74h.68v4.13h-.68v-4.13Z"/><path class="cls-4" d="M56.67,44.07h.82v.6h-.82v2.56c0,.32,.09,.37,.51,.37h.31v.6h-.52c-.7,0-.98-.14-.98-.9v-2.63h-.7v-.6h.7v-1.24h.68v1.24Z"/><polygon class="cls-4" points="58.89 42.36 59.76 42.36 58.72 43.5 58.21 43.5 58.89 42.36"/><path class="cls-4" d="M60.58,46.9c.02,.61,.56,.8,1.11,.8,.42,0,1-.1,1-.61,0-1.06-2.7-.34-2.7-1.93,0-.83,.81-1.17,1.54-1.17,.93,0,1.63,.29,1.69,1.29h-.68c-.04-.53-.52-.69-.96-.69-.41,0-.88,.11-.88,.53,0,.48,.72,.58,1.35,.72,.68,.15,1.35,.38,1.35,1.17,0,.99-.92,1.3-1.76,1.3-.93,0-1.71-.38-1.75-1.4h.68Z"/><path class="cls-4" d="M70.19,48.19c-.12,.07-.29,.11-.49,.11-.35,0-.57-.19-.57-.64-.38,.45-.88,.64-1.45,.64-.75,0-1.37-.33-1.37-1.16,0-.93,.69-1.14,1.4-1.27,.74-.15,1.39-.09,1.39-.61,0-.6-.5-.69-.92-.69-.57,0-1,.18-1.03,.78h-.68c.04-1.02,.82-1.38,1.75-1.38,.74,0,1.55,.17,1.55,1.13v2.12c0,.32,0,.46,.22,.46,.06,0,.14-.02,.21-.04v.53Zm-1.1-2.12c-.53,.39-2.06,0-2.06,1.02,0,.45,.38,.61,.8,.61,.89,0,1.26-.55,1.26-.93v-.69Z"/><path class="cls-4" d="M73.61,46.9c.02,.61,.56,.8,1.11,.8,.42,0,1-.1,1-.61,0-1.06-2.7-.34-2.7-1.93,0-.83,.81-1.17,1.54-1.17,.93,0,1.63,.29,1.69,1.29h-.68c-.04-.53-.52-.69-.96-.69-.41,0-.88,.11-.88,.53,0,.48,.72,.58,1.35,.72,.68,.15,1.35,.38,1.35,1.17,0,.99-.92,1.3-1.76,1.3-.93,0-1.71-.38-1.75-1.4h.68Z"/><path class="cls-4" d="M77.27,44.07h.64v.61h.02c.31-.47,.75-.7,1.33-.7,.51,0,.97,.19,1.13,.7,.28-.45,.76-.7,1.29-.7,.82,0,1.37,.34,1.37,1.2v3.03h-.68v-2.71c0-.51-.14-.92-.8-.92s-1.08,.42-1.08,1.05v2.57h-.68v-2.71c0-.54-.17-.92-.77-.92-.8,0-1.1,.73-1.1,1.05v2.57h-.68v-4.13Z"/><path class="cls-4" d="M87.81,48.19c-.12,.07-.29,.11-.49,.11-.35,0-.57-.19-.57-.64-.38,.45-.88,.64-1.45,.64-.75,0-1.37-.33-1.37-1.16,0-.93,.69-1.14,1.4-1.27,.74-.15,1.39-.09,1.39-.61,0-.6-.49-.69-.92-.69-.57,0-1,.18-1.03,.78h-.68c.04-1.02,.82-1.38,1.75-1.38,.74,0,1.55,.17,1.55,1.13v2.12c0,.32,0,.46,.22,.46,.06,0,.14-.02,.21-.04v.53Zm-1.1-2.12c-.53,.39-2.06,0-2.06,1.02,0,.45,.38,.61,.8,.61,.89,0,1.26-.55,1.26-.93v-.69Z"/><path class="cls-4" d="M88.49,44.07h.64v.87h.02c.33-.67,.78-.99,1.52-.97v.72c-1.09,0-1.49,.61-1.49,1.67v1.84h-.68v-4.13Z"/><path class="cls-4" d="M92.2,44.07h.82v.6h-.82v2.56c0,.32,.09,.37,.51,.37h.31v.6h-.52c-.7,0-.98-.14-.98-.9v-2.63h-.7v-.6h.7v-1.24h.68v1.24Z"/><path class="cls-4" d="M97.37,46.89c-.18,.92-.83,1.41-1.76,1.41-1.32,0-1.94-.92-1.98-2.17,0-1.25,.81-2.15,1.94-2.15,1.46,0,1.91,1.37,1.87,2.36h-3.09c-.02,.72,.38,1.36,1.29,1.36,.57,0,.95-.26,1.07-.81h.67Zm-.65-1.15c-.04-.65-.51-1.17-1.19-1.17s-1.14,.53-1.18,1.17h2.37Z"/><path class="cls-4" d="M98.19,44.07h.64v.87h.02c.33-.67,.78-.99,1.52-.97v.72c-1.09,0-1.49,.61-1.49,1.67v1.84h-.68v-4.13Z"/><polygon class="cls-4" points="107.34 48.2 106.62 48.2 105.79 44.92 105.77 44.92 104.94 48.2 104.2 48.2 102.88 44.07 103.63 44.07 104.56 47.45 104.58 47.45 105.41 44.07 106.15 44.07 107.02 47.45 107.03 47.45 107.96 44.07 108.66 44.07 107.34 48.2"/><path class="cls-4" d="M111.17,43.98c1.31,0,2,.95,2,2.16s-.69,2.16-2,2.16-2-.95-2-2.16,.69-2.16,2-2.16m0,3.72c.71,0,1.29-.56,1.29-1.56s-.57-1.57-1.29-1.57-1.29,.57-1.29,1.57,.57,1.56,1.29,1.56"/><path class="cls-4" d="M114.02,44.07h.64v.87h.02c.33-.67,.78-.99,1.52-.97v.72c-1.09,0-1.49,.61-1.49,1.67v1.84h-.68v-4.13Z"/><rect class="cls-4" x="116.83" y="42.5" width=".68" height="5.7"/><path class="cls-4" d="M122.33,48.2h-.68v-.56h-.02c-.22,.46-.74,.65-1.32,.65-1.27,0-1.9-1.01-1.9-2.17s.62-2.15,1.89-2.15c.41,0,1.04,.16,1.33,.65h.02v-2.12h.68v5.7Zm-1.92-.5c.92,0,1.26-.79,1.26-1.56,0-.81-.37-1.57-1.3-1.57s-1.24,.79-1.24,1.6,.4,1.52,1.28,1.52"/><path class="cls-7" d="M66.87,13.39c0,1.95-.89,2.85-2.74,2.85h-7.01v.83c0,.57,.27,.86,.8,.86h8.77v3.62h-9.07c-2.65,0-3.98-1.32-3.98-3.97v-5.47c0-2.44,1.33-3.64,3.98-3.64h6.51c1.83,0,2.74,1.01,2.74,3.05v1.87Zm-8.95-1.52c-.53,0-.8,.31-.8,.94v.9h5.58c.45,0,.68-.33,.68-.97,0-.59-.23-.88-.68-.88h-4.78Z"/><path class="cls-7" d="M87.53,21.55h-3.49V12.73c0-.57-.27-.86-.8-.86h-3.24v9.68h-3.5V11.87h-4.06v9.68h-3.47V8.47h14.26c2.86,0,4.29,1.43,4.29,4.3v8.78Z"/><path class="cls-7" d="M103.73,17.25c0,2.88-1.42,4.3-4.29,4.3h-5.5c-2.86,0-4.29-1.43-4.29-4.3V3.55h3.47v4.92h6.31c2.86,0,4.29,1.43,4.29,4.3v4.48Zm-10.6-5.38v5.18c0,.59,.27,.88,.82,.88h5.5c.53,0,.8-.29,.8-.88v-4.33c0-.57-.27-.86-.8-.86h-6.31Z"/><path class="cls-7" d="M119.1,13.39c0,1.95-.89,2.85-2.74,2.85h-7.01v.83c0,.57,.27,.86,.8,.86h8.77v3.62h-9.07c-2.65,0-3.98-1.32-3.98-3.97v-5.47c0-2.44,1.33-3.64,3.98-3.64h6.51c1.83,0,2.74,1.01,2.74,3.05v1.87Zm-8.95-1.52c-.53,0-.8,.31-.8,.94v.9h5.58c.44,0,.68-.33,.68-.97,0-.59-.23-.88-.68-.88h-4.78Z"/><path class="cls-7" d="M135.28,17.25c0,2.88-1.42,4.3-4.29,4.3h-5.5c-2.86,0-4.29-1.43-4.29-4.3v-4.48c0-2.88,1.42-4.3,4.29-4.3h6.31V3.55h3.47v13.7Zm-9.78-5.38c-.53,0-.8,.29-.8,.86v4.33c0,.59,.27,.88,.8,.88h5.5c.55,0,.82-.29,.82-.88v-5.18h-6.31Z"/><path class="cls-7" d="M151.48,17.25c0,2.88-1.42,4.3-4.29,4.3h-5.5c-2.86,0-4.29-1.43-4.29-4.3v-4.48c0-2.88,1.42-4.3,4.29-4.3h6.31V3.55h3.47v13.7Zm-9.78-5.38c-.53,0-.8,.29-.8,.86v4.33c0,.59,.27,.88,.8,.88h5.5c.55,0,.82-.29,.82-.88v-5.18h-6.31Z"/><path class="cls-7" d="M166.84,13.39c0,1.95-.89,2.85-2.74,2.85h-7.01v.83c0,.57,.27,.86,.8,.86h8.77v3.62h-9.07c-2.65,0-3.98-1.32-3.98-3.97v-5.47c0-2.44,1.33-3.64,3.98-3.64h6.51c1.83,0,2.74,1.01,2.74,3.05v1.87Zm-8.95-1.52c-.53,0-.8,.31-.8,.94v.9h5.58c.44,0,.68-.33,.68-.97,0-.59-.23-.88-.68-.88h-4.78Z"/><path class="cls-7" d="M183.02,17.25c0,2.88-1.42,4.3-4.29,4.3h-5.5c-2.86,0-4.29-1.43-4.29-4.3v-4.48c0-2.88,1.42-4.3,4.29-4.3h6.31V3.55h3.47v13.7Zm-9.78-5.38c-.53,0-.8,.29-.8,.86v4.33c0,.59,.27,.88,.8,.88h5.5c.55,0,.82-.29,.82-.88v-5.18h-6.31Z"/><path class="cls-4" d="M205.65,19.42c-.27,1.34-1.1,2.13-2.1,2.13h-2.53c-1.19,0-2.22-.88-2.56-2.11l-2.05-7.58h-.71l-2.04,7.58c-.34,1.23-1.35,2.11-2.54,2.11h-2.53c-1,0-1.83-.79-2.1-2.13l-2.17-10.96h3.74l1.28,8.61c.09,.57,.3,.86,.64,.86h.37c.3,0,.53-.29,.69-.83l2.4-8.63h5.23l2.42,8.63c.16,.55,.39,.83,.69,.83h.37c.34,0,.55-.29,.64-.86l1.24-8.61h3.74l-2.13,10.96Z"/><path class="cls-4" d="M222.75,17.29c0,2.83-1.42,4.26-4.29,4.26h-5.5c-2.86,0-4.29-1.43-4.29-4.3v-4.48c0-2.88,1.42-4.3,4.29-4.3h5.5c2.86,0,4.29,1.43,4.29,4.3v4.52Zm-9.78-5.42c-.53,0-.8,.29-.8,.86v4.33c0,.59,.27,.88,.8,.88h5.5c.55,0,.82-.29,.82-.83v-4.37c0-.57-.27-.86-.82-.86h-5.5Z"/><path class="cls-4" d="M233.77,11.87h-4.61c-.53,0-.8,.29-.8,.86v8.83h-3.49V12.77c0-2.88,1.42-4.3,4.29-4.3h4.61v3.4Z"/><rect class="cls-4" x="235.36" y="3.55" width="3.47" height="18"/><path class="cls-4" d="M255.01,17.25c0,2.88-1.42,4.3-4.29,4.3h-5.5c-2.86,0-4.29-1.43-4.29-4.3v-4.48c0-2.88,1.42-4.3,4.29-4.3h6.31V3.55h3.47v13.7Zm-9.78-5.38c-.53,0-.8,.29-.8,.86v4.33c0,.59,.27,.88,.8,.88h5.5c.55,0,.82-.29,.82-.88v-5.18h-6.31Z"/><path class="cls-3" d="M39.38,6.8c.94,.28,1.72,1.58,1.74,2.91l.2,15.26c.02,1.32-.74,2.18-1.68,1.9l-10.83-3.19c-.94-.28-1.72-1.58-1.74-2.91l-.2-15.27c-.02-1.32,.74-2.18,1.68-1.9l10.83,3.19Z"/><path class="cls-7" d="M39.64,26.87l-10.83-3.19c-.4-.12-.77-.43-1.07-.84-.13-.18-.25-.39-.34-.6l-14.53,4.49c.1,.22,.21,.42,.34,.6,.3,.42,.67,.73,1.07,.84l10.83,3.19c.24,.07,.46,.07,.66,0l14.53-4.49c-.2,.06-.43,.06-.66,0"/><path class="cls-6" d="M27.14,4.26c.1-.18,.21-.33,.35-.44,.12-.1,.25-.18,.4-.22l-14.53,4.48c-.14,.04-.28,.12-.4,.22-.14,.11-.25,.26-.35,.44-.18,.33-.28,.75-.27,1.25l.2,15.31h0c0,.23,.03,.46,.08,.68,.06,.26,.14,.51,.24,.74l14.53-4.49c-.1-.23-.19-.48-.24-.74-.05-.24-.08-.48-.08-.72h0l-.19-15.27c0-.49,.09-.92,.27-1.24"/><polygon class="cls-5" points="25.42 2.55 25.42 3.2 19.16 5.11 19.16 4.47 25.42 2.55"/></g><g class="cls-2"><path class="cls-9" d="M16.64,4.24c-.18,0-.36,0-.54,.01-4.03,.16-7.37,2.09-9.5,5.08-.56,.79-1.04,1.65-1.42,2.57-.37,.89-.66,1.82-.85,2.81-.19,.97-.29,1.98-.29,3.02v.64c0-1.04,.1-2.05,.29-3.02,.19-.99,.48-1.93,.85-2.81,.38-.92,.86-1.78,1.42-2.56,2.13-2.99,5.46-4.92,9.5-5.08,.18,0,.36-.01,.54-.01,.84,0,1.68,.08,2.51,.23v-.64c-.83-.15-1.67-.23-2.51-.23"/></g><g><path class="cls-8" d="M31.31,31.16l5.59-1.71c-2.05,6.35-7.38,10.81-14.36,11.08-.24,0-.47,.01-.7,.01C11.85,40.55,2.31,31.96,.36,21.02-1.65,9.83,5.03,.42,15.28,.01c.24,0,.47-.01,.7-.01,3.28,0,6.5,.92,9.43,2.55l-6.26,1.91c-.83-.15-1.67-.23-2.51-.23-.18,0-.36,0-.54,.01-8.09,.32-13.36,7.75-11.78,16.57,1.55,8.63,9.07,15.41,16.96,15.41,.18,0,.37,0,.55-.01,4.02-.16,7.35-2.08,9.48-5.06"/><path class="cls-9" d="M0,17.74v-.65C0,18.37,.11,19.68,.36,21.02c1.96,10.94,11.49,19.53,21.49,19.53,.23,0,.47,0,.7-.01,6.98-.28,12.31-4.73,14.36-11.08v.64c-2.05,6.35-7.38,10.81-14.36,11.09-.24,0-.47,.01-.7,.01C11.85,41.2,2.31,32.61,.36,21.67,.11,20.33,0,19.01,0,17.74"/></g><g class="cls-10"><path class="cls-9" d="M36.39,30.85c-.49,1.17-1.1,2.26-1.81,3.26-2.7,3.78-6.92,6.23-12.03,6.43-.24,0-.47,.01-.7,.01C11.85,40.55,2.31,31.96,.36,21.02,.11,19.68,0,18.37,0,17.09v.65C0,19.01,.11,20.33,.36,21.67c1.96,10.94,11.49,19.53,21.49,19.53,.23,0,.47,0,.7-.01,5.11-.21,9.33-2.65,12.03-6.43,.71-1,1.32-2.09,1.81-3.26,.19-.45,.36-.92,.52-1.4v-.64c-.15,.47-.33,.94-.52,1.39"/></g><g><path class="cls-4" d="M273.74,21.52h-16.02v-4.27c0-1.51,.64-3.3,3.68-3.3h9.06c1.25,0,1.41-.56,1.41-1.1v-.66c0-.57-.17-1.15-1.41-1.15h-12.22v-2.3h12.22c3.04,0,3.68,1.79,3.68,3.3v1.13c0,1.4-.64,3.08-3.68,3.08h-9.06c-1.23,0-1.4,.6-1.4,1.18v1.79h13.74v2.3Z"/><path class="cls-4" d="M288.39,21.52h-7.94c-3.86,0-4.67-2.31-4.67-4.24v-4.27c0-2.79,1.62-4.27,4.67-4.27h7.94c3.05,0,4.66,1.48,4.66,4.27v4.27c0,1.93-.81,4.24-4.66,4.24m-7.28-10.47c-2.63,0-3.05,.59-3.05,2.51v3.18c0,2.03,.57,2.49,3.05,2.49h6.61c2.79,0,3.05-.68,3.05-2.49v-3.18c0-1.9-.58-2.51-2.38-2.51h-7.28Z"/></g><path class="cls-4" d="M310.68,21.52h-16.02v-4.27c0-1.51,.64-3.3,3.68-3.3h9.06c1.25,0,1.41-.56,1.41-1.1v-.66c0-.57-.17-1.15-1.41-1.15h-12.22v-2.3h12.22c3.04,0,3.68,1.79,3.68,3.3v1.13c0,1.4-.64,3.08-3.68,3.08h-9.06c-1.23,0-1.4,.6-1.4,1.18v1.79h13.74v2.3Z"/></g><path class="cls-4" d="M325.13,21.51h-12v-2.22h11.28c.4,0,.76-.02,1.08-.06,.29-.03,.54-.1,.74-.2,.17-.09,.3-.21,.4-.37,.1-.17,.14-.4,.14-.69v-1.29c0-.2-.06-.33-.2-.43-.18-.13-.38-.19-.63-.19h-12.67v-2.07h12.67c.22,0,.4-.07,.56-.21,.15-.14,.22-.31,.22-.54v-.98c0-.27-.05-.49-.14-.66-.09-.16-.22-.27-.38-.36-.2-.1-.44-.17-.73-.21-.31-.04-.67-.06-1.05-.06h-11.23v-2.22h11.95c3.1,0,3.75,1.82,3.75,3.35v1.04c0,.49-.12,.94-.37,1.32-.11,.17-.23,.32-.38,.45,.15,.1,.28,.21,.41,.35,.31,.35,.47,.81,.47,1.36v1.55c0,1.53-.67,3.35-3.88,3.35Z"/></g></g></svg>